<svg version="1.1" id="Layer_1" xmlns="http://www.w3.org/2000/svg" xmlns:xlink="http://www.w3.org/1999/xlink" x="0px" y="0px"
	 width="100%" viewBox="0 0 512 512" enable-background="new 0 0 512 512" xml:space="preserve">
<path fill="#000000" opacity="1.000000" stroke="none" 
	d="
M1.000000,185.000000 
	C1.000000,123.333336 1.000000,62.166668 1.000000,1.000000 
	C171.666672,1.000000 342.333344,1.000000 513.000000,1.000000 
	C513.000000,171.666672 513.000000,342.333344 513.000000,513.000000 
	C342.333344,513.000000 171.666672,513.000000 1.000000,513.000000 
	C1.000000,403.833344 1.000000,294.666656 1.000000,185.000000 
M410.003235,231.792587 
	C410.335724,229.541504 410.940582,227.292297 410.955933,225.039047 
	C411.046753,211.709930 411.000702,198.379868 411.000702,185.050125 
	C411.000702,179.779297 411.000702,174.508469 411.000702,169.000732 
	C421.009766,169.000732 430.498230,168.638016 439.947662,169.090042 
	C452.525299,169.691696 461.727478,164.090652 467.906982,153.888565 
	C480.966553,132.327652 480.424042,110.019829 468.506348,88.384346 
	C462.460632,77.408897 452.442841,71.748634 439.014618,71.861031 
	C395.029572,72.229179 351.039490,71.999260 307.051361,71.999260 
	C305.496521,71.999260 303.941650,71.999268 300.880157,71.999268 
	C315.866333,62.175613 329.503906,53.236019 343.496582,44.063625 
	C342.616272,43.230877 342.140900,42.486683 341.468079,42.189342 
	C332.823425,38.369156 324.092926,34.739010 315.497833,30.811911 
	C301.047150,24.209379 286.610168,17.568861 272.305054,10.659349 
	C265.779144,7.507269 259.674774,6.802790 252.361496,8.633974 
	C235.952316,12.742699 219.187958,15.410803 202.668732,19.113913 
	C196.717148,20.448076 190.435883,20.624157 185.475342,25.808731 
	C171.426773,40.491741 156.778381,54.599285 142.507462,69.072723 
	C140.335968,71.275032 138.215652,72.112373 135.172318,72.067451 
	C123.677925,71.897758 112.179276,71.961800 100.682907,72.039436 
	C98.948555,72.051155 97.160217,72.413300 95.494347,72.928574 
	C78.584526,78.158928 69.768593,90.956543 63.978519,106.638969 
	C57.974186,122.901741 57.023598,139.996063 56.175270,156.987976 
	C55.590969,168.691528 56.425285,180.490845 57.060963,192.223785 
	C57.788704,205.656052 58.945404,219.066437 60.014610,232.478455 
	C60.938400,244.066437 61.965302,255.646576 63.010792,267.224365 
	C64.305656,281.563812 66.489914,295.879364 66.801926,310.237549 
	C67.245148,330.634186 66.376099,351.061157 65.961571,371.473022 
	C65.878525,375.562042 65.558441,379.678101 64.937050,383.718536 
	C62.720734,398.129700 60.897892,412.635345 57.859341,426.877625 
	C53.903893,445.417603 49.061378,463.774109 44.335239,482.141266 
	C42.211670,490.394104 39.444805,498.481445 36.861637,507.000702 
	C39.372623,507.000702 41.196434,507.000702 43.020245,507.000702 
	C143.826385,507.000702 244.632538,507.000702 345.438690,507.000702 
	C350.937195,507.000702 356.440094,507.120575 361.931305,506.920105 
	C363.384369,506.867035 365.468658,506.241608 366.130493,505.175720 
	C371.892517,495.895874 378.450012,486.912720 382.762177,476.970154 
	C392.266754,455.055664 395.974457,431.539764 398.932373,407.994202 
	C400.947235,391.955688 402.467621,375.850555 403.957092,359.751923 
	C405.166016,346.685455 406.081604,333.589905 406.975464,320.496887 
	C407.760071,309.003052 408.550018,297.502289 408.947968,285.991119 
	C409.492126,270.250122 409.671783,254.496445 409.995056,238.747925 
	C410.036072,236.749313 410.000824,234.749130 410.003235,231.792587 
z"/>
<path fill="#FFFFFE" opacity="1.000000" stroke="none" 
	d="
M410.002075,232.271118 
	C410.000824,234.749130 410.036072,236.749313 409.995056,238.747925 
	C409.671783,254.496445 409.492126,270.250122 408.947968,285.991119 
	C408.550018,297.502289 407.760071,309.003052 406.975464,320.496887 
	C406.081604,333.589905 405.166016,346.685455 403.957092,359.751923 
	C402.467621,375.850555 400.947235,391.955688 398.932373,407.994202 
	C395.974457,431.539764 392.266754,455.055664 382.762177,476.970154 
	C378.450012,486.912720 371.892517,495.895874 366.130493,505.175720 
	C365.468658,506.241608 363.384369,506.867035 361.931305,506.920105 
	C356.440094,507.120575 350.937195,507.000702 345.438690,507.000702 
	C244.632538,507.000702 143.826385,507.000702 43.020245,507.000702 
	C41.196434,507.000702 39.372623,507.000702 36.861637,507.000702 
	C39.444805,498.481445 42.211670,490.394104 44.335239,482.141266 
	C49.061378,463.774109 53.903893,445.417603 57.859341,426.877625 
	C60.897892,412.635345 62.720734,398.129700 64.937050,383.718536 
	C65.558441,379.678101 65.878525,375.562042 65.961571,371.473022 
	C66.376099,351.061157 67.245148,330.634186 66.801926,310.237549 
	C66.489914,295.879364 64.305656,281.563812 63.010792,267.224365 
	C61.965302,255.646576 60.938400,244.066437 60.014610,232.478455 
	C58.945404,219.066437 57.788704,205.656052 57.060963,192.223785 
	C56.425285,180.490845 55.590969,168.691528 56.175270,156.987976 
	C57.023598,139.996063 57.974186,122.901741 63.978519,106.638969 
	C69.768593,90.956543 78.584526,78.158928 95.494347,72.928574 
	C97.160217,72.413300 98.948555,72.051155 100.682907,72.039436 
	C112.179276,71.961800 123.677925,71.897758 135.172318,72.067451 
	C138.215652,72.112373 140.335968,71.275032 142.507462,69.072723 
	C156.778381,54.599285 171.426773,40.491741 185.475342,25.808731 
	C190.435883,20.624157 196.717148,20.448076 202.668732,19.113913 
	C219.187958,15.410803 235.952316,12.742699 252.361496,8.633974 
	C259.674774,6.802790 265.779144,7.507269 272.305054,10.659349 
	C286.610168,17.568861 301.047150,24.209379 315.497833,30.811911 
	C324.092926,34.739010 332.823425,38.369156 341.468079,42.189342 
	C342.140900,42.486683 342.616272,43.230877 343.496582,44.063625 
	C329.503906,53.236019 315.866333,62.175613 300.880157,71.999268 
	C303.941650,71.999268 305.496521,71.999260 307.051361,71.999260 
	C351.039490,71.999260 395.029572,72.229179 439.014618,71.861031 
	C452.442841,71.748634 462.460632,77.408897 468.506348,88.384346 
	C480.424042,110.019829 480.966553,132.327652 467.906982,153.888565 
	C461.727478,164.090652 452.525299,169.691696 439.947662,169.090042 
	C430.498230,168.638016 421.009766,169.000732 411.000702,169.000732 
	C411.000702,174.508469 411.000702,179.779297 411.000702,185.050125 
	C411.000702,198.379868 411.046753,211.709930 410.955933,225.039047 
	C410.940582,227.292297 410.335724,229.541504 410.002075,232.271118 
M441.321442,83.134590 
	C391.552917,83.096886 341.784393,83.059181 291.382904,82.990341 
	C290.960480,82.988274 290.538055,82.986198 289.704163,82.364799 
	C288.169128,77.852386 286.634094,73.339966 285.406250,68.251152 
	C296.543335,60.757477 307.680420,53.263802 319.032928,45.625179 
	C318.168152,45.076092 317.659210,44.664135 317.082611,44.399754 
	C299.241119,36.218655 281.415070,28.002871 263.509064,19.965309 
	C261.866791,19.228134 259.617676,19.214226 257.800995,19.590921 
	C238.428207,23.607990 219.071198,27.705700 199.754730,31.983862 
	C197.486053,32.486317 195.096252,33.801022 193.424194,35.421745 
	C180.744644,47.711983 168.224457,60.166771 155.673950,72.589821 
	C154.584290,73.668427 153.633926,74.887749 152.181641,76.538750 
	C163.406891,78.555557 173.691330,80.403343 183.296783,82.710732 
	C169.357391,83.134254 155.420486,83.711380 141.477890,83.936531 
	C128.486328,84.146317 115.484047,83.791801 102.497101,84.113708 
	C99.203003,84.195366 95.560623,85.266800 92.745079,86.979568 
	C81.299644,93.942116 75.906197,105.246498 73.199791,117.666893 
	C71.026154,127.642311 69.863388,137.899017 69.057281,148.094574 
	C68.220734,158.675171 67.723824,169.360779 68.202995,179.949570 
	C68.988586,197.309525 70.657364,214.630356 72.003204,231.963837 
	C73.002983,244.840195 74.038391,257.714111 75.135887,270.582428 
	C76.373245,285.090698 78.374870,299.569946 78.837776,314.100250 
	C79.689247,340.827301 79.377121,367.593842 74.974663,394.070587 
	C71.395859,415.593689 67.554260,437.085968 63.179852,458.459015 
	C60.632523,470.905090 56.806789,483.089478 53.400063,495.982697 
	C55.591728,495.982697 57.542591,495.982697 59.493450,495.982697 
	C157.455231,495.982727 255.417145,495.920013 353.378448,496.132355 
	C359.509094,496.145660 363.152832,493.520599 365.885559,488.962189 
	C368.093842,485.278595 369.894440,481.275940 371.343689,477.224426 
	C379.197845,455.267822 383.387390,432.490845 386.016937,409.399353 
	C388.729950,385.574982 391.578003,361.760986 393.851715,337.893372 
	C395.359589,322.064972 396.168274,306.159912 396.915039,290.271576 
	C397.811432,271.200256 398.605774,252.114792 398.902191,233.027039 
	C399.246246,210.874207 398.962402,188.712051 399.060120,166.554428 
	C399.073151,163.601242 399.725800,160.650879 401.008087,157.690536 
	C413.007111,157.619370 425.006165,157.548203 437.823517,157.740356 
	C447.561584,158.497681 454.634277,154.135559 459.024445,145.791611 
	C467.761322,129.186279 467.742523,112.307922 459.148102,95.650833 
	C455.625427,88.823486 450.093903,84.231949 441.321442,83.134590 
z"/>
<path fill="#EAE5DB" opacity="1.000000" stroke="none" 
	d="
M400.082245,157.699219 
	C399.725800,160.650879 399.073151,163.601242 399.060120,166.554428 
	C398.962402,188.712051 399.246246,210.874207 398.902191,233.027039 
	C398.605774,252.114792 397.811432,271.200256 396.915039,290.271576 
	C396.168274,306.159912 395.359589,322.064972 393.851715,337.893372 
	C391.578003,361.760986 388.729950,385.574982 386.016937,409.399353 
	C383.387390,432.490845 379.197845,455.267822 371.343689,477.224426 
	C369.894440,481.275940 368.093842,485.278595 365.885559,488.962189 
	C363.152832,493.520599 359.509094,496.145660 353.378448,496.132355 
	C255.417145,495.920013 157.455231,495.982727 59.493450,495.982697 
	C57.542591,495.982697 55.591728,495.982697 53.400063,495.982697 
	C56.806789,483.089478 60.632523,470.905090 63.179852,458.459015 
	C67.554260,437.085968 71.395859,415.593689 74.974663,394.070587 
	C79.377121,367.593842 79.689247,340.827301 78.837776,314.100250 
	C78.374870,299.569946 76.373245,285.090698 75.135887,270.582428 
	C74.038391,257.714111 73.002983,244.840195 72.003204,231.963837 
	C70.657364,214.630356 68.988586,197.309525 68.202995,179.949570 
	C67.723824,169.360779 68.220734,158.675171 69.057281,148.094574 
	C69.863388,137.899017 71.026154,127.642311 73.199791,117.666893 
	C75.906197,105.246498 81.299644,93.942116 92.745079,86.979568 
	C95.560623,85.266800 99.203003,84.195366 102.497101,84.113708 
	C115.484047,83.791801 128.486328,84.146317 141.477890,83.936531 
	C155.420486,83.711380 169.357391,83.134254 184.036621,82.451767 
	C187.193268,82.659500 189.610077,83.126213 191.956757,83.882874 
	C182.404129,97.848381 177.125839,113.392090 171.505798,129.026245 
	C150.228241,129.070953 129.415421,128.993988 108.605843,129.217575 
	C106.426849,129.240982 104.266922,131.040207 102.098152,132.015503 
	C104.268295,132.985184 106.381287,134.592224 108.620377,134.793030 
	C113.410240,135.222565 118.265343,134.918884 123.093712,134.925781 
	C138.743698,134.948166 154.393692,134.975189 170.035034,135.387909 
	C167.945389,141.887360 166.463577,148.297958 163.609344,154.024551 
	C160.929459,159.401321 156.949097,164.173233 153.196411,168.940018 
	C152.314163,170.060684 149.539322,171.028549 148.499359,170.466812 
	C142.593674,167.276810 137.486252,169.911423 132.364868,172.166779 
	C121.527702,176.939285 121.562126,177.017441 124.436745,187.996826 
	C119.154282,188.042587 114.316109,187.837936 109.520378,188.198212 
	C107.981956,188.313797 106.555664,189.921890 105.078079,190.847153 
	C106.536476,191.856873 107.957642,193.665634 109.459839,193.735641 
	C115.426857,194.013763 121.419182,193.748886 127.653839,193.966156 
	C131.266693,193.785553 134.627853,193.323975 138.273468,193.168549 
	C139.867691,193.614426 141.177429,193.876007 142.487213,193.876373 
	C213.459976,193.896042 284.432739,193.900818 355.405487,193.859879 
	C357.541260,193.858643 359.721954,193.532578 361.790619,193.002457 
	C362.644775,192.783569 363.983459,191.383804 363.836487,190.942169 
	C363.484833,189.885544 362.543701,188.690521 361.540405,188.273499 
	C360.392975,187.796555 358.920807,188.071259 357.589691,188.070435 
	C345.094482,188.062637 332.599304,188.071579 320.104095,188.064835 
	C261.960480,188.033417 203.816879,187.998520 145.844727,187.658218 
	C147.890305,184.126205 149.758514,180.897430 151.642227,177.677719 
	C152.183228,176.753036 152.549942,175.468430 153.368347,175.004074 
	C161.179749,170.572098 165.413040,163.337738 168.583679,155.414612 
	C171.274704,148.689957 173.462555,141.763931 176.350433,134.922623 
	C236.153854,134.920471 295.479919,134.923462 354.805969,134.920303 
	C356.136810,134.920227 357.589569,135.169205 358.763000,134.720367 
	C359.861084,134.300369 360.663116,133.106262 361.595428,132.252838 
	C360.752258,131.361801 360.050629,129.978577 359.035217,129.686554 
	C357.165527,129.148865 355.111572,129.111496 353.134125,129.109543 
	C294.642242,129.051529 236.150314,129.023544 177.725372,128.602325 
	C179.120712,124.124443 180.017456,119.827812 181.861984,115.986252 
	C186.560623,106.200478 191.682663,96.617989 196.680786,87.387108 
	C197.999161,94.662048 199.485840,101.473824 200.458694,108.358192 
	C200.980164,112.048332 203.010712,113.306946 206.233398,113.906189 
	C237.452240,119.711143 264.633636,111.707253 288.041504,90.320030 
	C290.496857,88.076645 291.062744,85.894218 290.115631,82.984131 
	C290.538055,82.986198 290.960480,82.988274 291.991272,83.301392 
	C294.407135,83.741226 296.214569,83.981567 298.022156,83.982437 
	C341.394409,84.003433 384.766663,83.988319 428.138885,84.033600 
	C430.053467,84.035599 431.967499,84.546623 433.627258,84.916481 
	C432.937103,85.312752 432.501526,85.613098 431.707642,85.975967 
	C422.758087,89.841423 416.836639,96.501740 412.544678,104.536926 
	C403.691650,121.111267 400.375458,139.072327 400.082245,157.699219 
M330.776367,405.271332 
	C335.222198,395.641174 336.691437,385.436859 334.684357,375.159943 
	C331.221680,357.430176 316.749268,338.247772 289.421448,337.473297 
	C270.867706,336.947510 252.576813,348.002686 244.976425,368.358032 
	C240.134659,381.325134 241.987488,393.774811 246.898254,406.692719 
	C235.355148,418.237671 223.812027,429.782623 211.170563,442.426086 
	C221.825974,442.426086 230.848709,442.426086 240.172989,442.426086 
	C239.698456,451.426086 239.254608,459.844055 238.788651,468.681519 
	C252.385040,455.304688 265.289429,442.608643 279.045715,429.916504 
	C285.962372,429.714203 292.879059,429.511902 300.000854,429.941376 
	C311.771240,441.897217 323.536285,453.858307 335.321747,465.799286 
	C336.295593,466.785980 337.407318,467.636566 339.047455,469.067139 
	C338.542755,459.683289 338.084656,451.165680 337.588745,441.945190 
	C347.334167,441.945190 356.295929,441.945190 365.257690,441.945190 
	C365.612976,441.352844 365.968292,440.760498 366.323578,440.168121 
	C354.431274,428.793732 342.538940,417.419312 330.776367,405.271332 
M173.500000,249.999969 
	C235.949539,249.999924 298.399109,250.020248 360.848480,249.923706 
	C363.285919,249.919922 367.053680,251.707138 367.528046,247.328659 
	C367.586151,246.792191 363.325928,245.102463 361.065277,245.099213 
	C279.131653,244.981277 197.197845,245.000168 115.264046,245.000458 
	C114.264862,245.000458 113.112778,244.688004 112.302086,245.079941 
	C111.065887,245.677567 110.065819,246.763611 108.965485,247.642273 
	C109.993279,248.425476 110.920593,249.475327 112.079025,249.911880 
	C113.100655,250.296890 114.380302,249.999451 115.546021,249.999481 
	C134.530685,250.000015 153.515335,249.999924 173.500000,249.999969 
z"/>
<path fill="#FE615C" opacity="1.000000" stroke="none" 
	d="
M192.026901,83.592926 
	C189.610077,83.126213 187.193268,82.659500 184.376114,82.221954 
	C173.691330,80.403343 163.406891,78.555557 152.181641,76.538750 
	C153.633926,74.887749 154.584290,73.668427 155.673950,72.589821 
	C168.224457,60.166771 180.744644,47.711983 193.424194,35.421745 
	C195.096252,33.801022 197.486053,32.486317 199.754730,31.983862 
	C219.071198,27.705700 238.428207,23.607990 257.800995,19.590921 
	C259.617676,19.214226 261.866791,19.228134 263.509064,19.965309 
	C281.415070,28.002871 299.241119,36.218655 317.082611,44.399754 
	C317.659210,44.664135 318.168152,45.076092 319.032928,45.625179 
	C307.680420,53.263802 296.543335,60.757477 284.891785,68.605583 
	C272.742554,76.319466 261.152374,83.751442 249.426544,90.962891 
	C247.594818,92.089417 245.094727,92.836807 242.992767,92.665657 
	C238.899246,92.332344 234.881897,91.147682 230.809738,90.451828 
	C219.894394,88.586609 208.966766,86.793312 198.128235,84.649490 
	C207.326523,72.121262 219.372833,63.876854 233.290863,58.039955 
	C234.752975,57.426785 235.635040,55.430466 236.786224,54.075859 
	C235.023209,53.835815 233.264343,53.473179 231.495224,53.413330 
	C230.739746,53.387775 229.960770,53.988911 229.196106,54.313862 
	C214.153961,60.706123 201.972595,70.730576 192.026901,83.592926 
z"/>
<path fill="#FE615D" opacity="1.000000" stroke="none" 
	d="
M432.065979,85.913437 
	C432.501526,85.613098 432.937103,85.312752 434.031372,84.870728 
	C437.130157,84.343399 439.570221,83.957764 442.010284,83.572136 
	C450.093903,84.231949 455.625427,88.823486 459.148102,95.650833 
	C467.742523,112.307922 467.761322,129.186279 459.024445,145.791611 
	C454.634277,154.135559 447.561584,158.497681 437.284943,157.322189 
	C430.091583,153.823486 425.901581,148.513626 422.965363,141.961929 
	C419.267578,133.710846 418.504913,125.032082 419.012207,116.176491 
	C419.597076,105.966904 422.403778,96.634895 430.069550,89.284569 
	C430.977631,88.413864 431.412018,87.049156 432.065979,85.913437 
z"/>
<path fill="#C83156" opacity="1.000000" stroke="none" 
	d="
M198.044022,84.971436 
	C208.966766,86.793312 219.894394,88.586609 230.809738,90.451828 
	C234.881897,91.147682 238.899246,92.332344 242.992767,92.665657 
	C245.094727,92.836807 247.594818,92.089417 249.426544,90.962891 
	C261.152374,83.751442 272.742554,76.319466 284.738220,68.893784 
	C286.634094,73.339966 288.169128,77.852386 289.909912,82.674469 
	C291.062744,85.894218 290.496857,88.076645 288.041504,90.320030 
	C264.633636,111.707253 237.452240,119.711143 206.233398,113.906189 
	C203.010712,113.306946 200.980164,112.048332 200.458694,108.358192 
	C199.485840,101.473824 197.999161,94.662048 196.773315,87.085152 
	C197.228226,85.890640 197.636124,85.431038 198.044022,84.971436 
z"/>
<path fill="#C83156" opacity="1.000000" stroke="none" 
	d="
M431.707642,85.975967 
	C431.412018,87.049156 430.977631,88.413864 430.069550,89.284569 
	C422.403778,96.634895 419.597076,105.966904 419.012207,116.176491 
	C418.504913,125.032082 419.267578,133.710846 422.965363,141.961929 
	C425.901581,148.513626 430.091583,153.823486 436.875793,157.190521 
	C425.006165,157.548203 413.007111,157.619370 400.545166,157.694885 
	C400.375458,139.072327 403.691650,121.111267 412.544678,104.536926 
	C416.836639,96.501740 422.758087,89.841423 431.707642,85.975967 
z"/>
<path fill="#ECCACF" opacity="1.000000" stroke="none" 
	d="
M441.665863,83.353363 
	C439.570221,83.957764 437.130157,84.343399 434.285950,84.774796 
	C431.967499,84.546623 430.053467,84.035599 428.138885,84.033600 
	C384.766663,83.988319 341.394409,84.003433 298.022156,83.982437 
	C296.214569,83.981567 294.407135,83.741226 292.307739,83.316956 
	C341.784393,83.059181 391.552917,83.096886 441.665863,83.353363 
z"/>
<path fill="#FEC26A" opacity="1.000000" stroke="none" 
	d="
M299.795715,429.309601 
	C292.879059,429.511902 285.962372,429.714203 278.350891,429.664368 
	C264.117859,426.061218 254.554123,417.524689 247.217453,406.082489 
	C241.987488,393.774811 240.134659,381.325134 244.976425,368.358032 
	C252.576813,348.002686 270.867706,336.947510 289.421448,337.473297 
	C316.749268,338.247772 331.221680,357.430176 334.684357,375.159943 
	C336.691437,385.436859 335.222198,395.641174 330.470276,405.854858 
	C322.877075,417.827423 313.445374,426.368835 299.795715,429.309601 
M259.149323,392.007568 
	C263.997253,408.257874 277.933685,415.758575 290.909882,414.828461 
	C309.316284,413.509094 319.546722,397.738922 319.316803,383.002289 
	C318.999664,362.673889 297.193634,347.271332 276.636536,356.077148 
	C265.133057,361.004730 255.106766,374.510468 259.149323,392.007568 
z"/>
<path fill="#04ACFD" opacity="1.000000" stroke="none" 
	d="
M299.898285,429.625488 
	C313.445374,426.368835 322.877075,417.827423 330.405396,406.241638 
	C342.538940,417.419312 354.431274,428.793732 366.323578,440.168121 
	C365.968292,440.760498 365.612976,441.352844 365.257690,441.945190 
	C356.295929,441.945190 347.334167,441.945190 337.588745,441.945190 
	C338.084656,451.165680 338.542755,459.683289 339.047455,469.067139 
	C337.407318,467.636566 336.295593,466.785980 335.321747,465.799286 
	C323.536285,453.858307 311.771240,441.897217 299.898285,429.625488 
z"/>
<path fill="#04ACFD" opacity="1.000000" stroke="none" 
	d="
M247.057861,406.387604 
	C254.554123,417.524689 264.117859,426.061218 277.924927,429.662415 
	C265.289429,442.608643 252.385040,455.304688 238.788651,468.681519 
	C239.254608,459.844055 239.698456,451.426086 240.172989,442.426086 
	C230.848709,442.426086 221.825974,442.426086 211.170563,442.426086 
	C223.812027,429.782623 235.355148,418.237671 247.057861,406.387604 
z"/>
<path fill="#B6B0A7" opacity="1.000000" stroke="none" 
	d="
M145.673264,187.964890 
	C203.816879,187.998520 261.960480,188.033417 320.104095,188.064835 
	C332.599304,188.071579 345.094482,188.062637 357.589691,188.070435 
	C358.920807,188.071259 360.392975,187.796555 361.540405,188.273499 
	C362.543701,188.690521 363.484833,189.885544 363.836487,190.942169 
	C363.983459,191.383804 362.644775,192.783569 361.790619,193.002457 
	C359.721954,193.532578 357.541260,193.858643 355.405487,193.859879 
	C284.432739,193.900818 213.459976,193.896042 142.487213,193.876373 
	C141.177429,193.876007 139.867691,193.614426 138.458893,192.895264 
	C140.797668,190.865494 143.235458,189.415192 145.673264,187.964890 
z"/>
<path fill="#242341" opacity="1.000000" stroke="none" 
	d="
M145.844727,187.658218 
	C143.235458,189.415192 140.797668,190.865494 138.174438,192.589096 
	C134.627853,193.323975 131.266693,193.785553 127.571274,193.628479 
	C126.457169,191.328369 125.677330,189.646912 124.897491,187.965454 
	C121.562126,177.017441 121.527702,176.939285 132.364868,172.166779 
	C137.486252,169.911423 142.593674,167.276810 148.499359,170.466812 
	C149.539322,171.028549 152.314163,170.060684 153.196411,168.940018 
	C156.949097,164.173233 160.929459,159.401321 163.609344,154.024551 
	C166.463577,148.297958 167.945389,141.887360 170.273010,135.130402 
	C171.003555,132.653885 171.487503,130.822372 171.971451,128.990860 
	C177.125839,113.392090 182.404129,97.848381 191.956757,83.882874 
	C201.972595,70.730576 214.153961,60.706123 229.196106,54.313862 
	C229.960770,53.988911 230.739746,53.387775 231.495224,53.413330 
	C233.264343,53.473179 235.023209,53.835815 236.786224,54.075859 
	C235.635040,55.430466 234.752975,57.426785 233.290863,58.039955 
	C219.372833,63.876854 207.326523,72.121262 198.128235,84.649490 
	C197.636124,85.431038 197.228226,85.890640 196.727798,86.652191 
	C191.682663,96.617989 186.560623,106.200478 181.861984,115.986252 
	C180.017456,119.827812 179.120712,124.124443 177.496490,128.855865 
	C176.758133,131.307602 176.315598,133.117310 175.873062,134.927017 
	C173.462555,141.763931 171.274704,148.689957 168.583679,155.414612 
	C165.413040,163.337738 161.179749,170.572098 153.368347,175.004074 
	C152.549942,175.468430 152.183228,176.753036 151.642227,177.677719 
	C149.758514,180.897430 147.890305,184.126205 145.844727,187.658218 
z"/>
<path fill="#B2ACA3" opacity="1.000000" stroke="none" 
	d="
M173.000000,249.999969 
	C153.515335,249.999924 134.530685,250.000015 115.546021,249.999481 
	C114.380302,249.999451 113.100655,250.296890 112.079025,249.911880 
	C110.920593,249.475327 109.993279,248.425476 108.965485,247.642273 
	C110.065819,246.763611 111.065887,245.677567 112.302086,245.079941 
	C113.112778,244.688004 114.264862,245.000458 115.264046,245.000458 
	C197.197845,245.000168 279.131653,244.981277 361.065277,245.099213 
	C363.325928,245.102463 367.586151,246.792191 367.528046,247.328659 
	C367.053680,251.707138 363.285919,249.919922 360.848480,249.923706 
	C298.399109,250.020248 235.949539,249.999924 173.000000,249.999969 
z"/>
<path fill="#B7B1A8" opacity="1.000000" stroke="none" 
	d="
M176.350433,134.922623 
	C176.315598,133.117310 176.758133,131.307602 177.429535,129.244354 
	C236.150314,129.023544 294.642242,129.051529 353.134125,129.109543 
	C355.111572,129.111496 357.165527,129.148865 359.035217,129.686554 
	C360.050629,129.978577 360.752258,131.361801 361.595428,132.252838 
	C360.663116,133.106262 359.861084,134.300369 358.763000,134.720367 
	C357.589569,135.169205 356.136810,134.920227 354.805969,134.920303 
	C295.479919,134.923462 236.153854,134.920471 176.350433,134.922623 
z"/>
<path fill="#B7B1A8" opacity="1.000000" stroke="none" 
	d="
M171.505798,129.026245 
	C171.487503,130.822372 171.003555,132.653885 170.281647,134.742905 
	C154.393692,134.975189 138.743698,134.948166 123.093712,134.925781 
	C118.265343,134.918884 113.410240,135.222565 108.620377,134.793030 
	C106.381287,134.592224 104.268295,132.985184 102.098152,132.015503 
	C104.266922,131.040207 106.426849,129.240982 108.605843,129.217575 
	C129.415421,128.993988 150.228241,129.070953 171.505798,129.026245 
z"/>
<path fill="#B6B0A7" opacity="1.000000" stroke="none" 
	d="
M124.436745,187.996826 
	C125.677330,189.646912 126.457169,191.328369 127.319565,193.347504 
	C121.419182,193.748886 115.426857,194.013763 109.459839,193.735641 
	C107.957642,193.665634 106.536476,191.856873 105.078079,190.847153 
	C106.555664,189.921890 107.981956,188.313797 109.520378,188.198212 
	C114.316109,187.837936 119.154282,188.042587 124.436745,187.996826 
z"/>
<path fill="#FFB021" opacity="1.000000" stroke="none" 
	d="
M259.087463,391.597595 
	C255.106766,374.510468 265.133057,361.004730 276.636536,356.077148 
	C297.193634,347.271332 318.999664,362.673889 319.316803,383.002289 
	C319.546722,397.738922 309.316284,413.509094 290.909882,414.828461 
	C277.933685,415.758575 263.997253,408.257874 259.087463,391.597595 
z"/>
</svg>